# xmcd
#
# Track frame offsets: 
#        150
#        17930
#        35400
#        53062
#        69182
#        87550
#
# Disc length: 1480 seconds
#
# Revision: 1
# Processed by: cddbd v1.5.2PL0 Copyright (c) Steve Scherf et al.
# Submitted via: ExactAudioCopyFreeDBPlugin 1.0
#
DISCID=4705c606
DTITLE=Des'ree - Feel So High (The Family Stand Remix) - EP
DYEAR=1994
DGENRE=Soul
TTITLE0=Feel So High (The Family Stand Remix)
TTITLE1=You Gotta Be (Hourglass Mix)
TTITLE2=Little Child
TTITLE3=I Ain't Movin
TTITLE4=You Gotta Be (Love Will Save The Day)
TTITLE5=Take A Chance
EXTD=
EXTT0=
EXTT1=
EXTT2=
EXTT3=
EXTT4=
EXTT5=
PLAYORDER=
